<svg width="60" height="60" viewBox="0 0 60 60" fill="none" xmlns="http://www.w3.org/2000/svg">
<path d="M36.273 23.636L45 28" stroke="black" stroke-width="2" stroke-miterlimit="10" stroke-linecap="round" stroke-linejoin="round"/>
<path d="M44 16L42 13L36.133 23.9C35.7901 24.5353 35.2816 25.0659 34.6616 25.4356C34.0415 25.8054 33.3329 26.0004 32.611 26H18C16.9391 26 15.9217 26.4214 15.1716 27.1716C14.4214 27.9217 14 28.9391 14 30V51H19L19.954 43.412C19.9843 43.1401 20.0701 42.8774 20.206 42.64L24 36L34.812 39.6C35.1956 39.717 35.5351 39.9466 35.7866 40.259C36.038 40.5715 36.1897 40.9523 36.222 41.352L37 51H42V40L46 24H48C49.0609 24 50.0783 23.5786 50.8284 22.8284C51.5786 22.0783 52 21.0609 52 20V17L44 16Z" stroke="black" stroke-width="2" stroke-miterlimit="10" stroke-linecap="round" stroke-linejoin="round"/>
<path d="M31 21C27.8174 21 24.7652 19.7357 22.5147 17.4853C20.2643 15.2348 19 12.1826 19 9" stroke="black" stroke-width="2" stroke-miterlimit="10" stroke-linecap="round" stroke-linejoin="round"/>
<path d="M8 20C8 21.5913 8.63214 23.1174 9.75736 24.2426C10.8826 25.3679 12.4087 26 14 26H18" stroke="black" stroke-width="2" stroke-miterlimit="10" stroke-linecap="round" stroke-linejoin="round"/>
</svg>
