<svg width="30" height="30" viewBox="0 0 30 30" fill="none" xmlns="http://www.w3.org/2000/svg">
<path d="M17.706 11.353L22.556 13.778" stroke="black" stroke-width="1.5" stroke-miterlimit="10" stroke-linecap="round" stroke-linejoin="round"/>
<path d="M22 8L20 6L17.26 12.394C17.1829 12.5738 17.0547 12.7271 16.8914 12.8348C16.728 12.9426 16.5367 13 16.341 13H9C8.46957 13 7.96086 13.2107 7.58579 13.5858C7.21071 13.9609 7 14.4696 7 15V25H10V22.236C9.99991 22.0808 10.0362 21.9277 10.106 21.789L12 18L17.316 19.772C17.5152 19.8383 17.6885 19.9657 17.8112 20.136C17.934 20.3064 18.0001 20.511 18 20.721V25H21V20L23 12H24C24.5304 12 25.0391 11.7893 25.4142 11.4142C25.7893 11.0391 26 10.5304 26 10V8H22Z" stroke="black" stroke-width="1.5" stroke-miterlimit="10" stroke-linecap="round" stroke-linejoin="round"/>
<path d="M15 10C13.4087 10 11.8826 9.36786 10.7574 8.24264C9.63214 7.11742 9 5.5913 9 4" stroke="black" stroke-width="1.5" stroke-miterlimit="10" stroke-linecap="round" stroke-linejoin="round"/>
<path d="M4 10C4 10.7956 4.31607 11.5587 4.87868 12.1213C5.44129 12.6839 6.20435 13 7 13H8" stroke="black" stroke-width="1.5" stroke-miterlimit="10" stroke-linecap="round" stroke-linejoin="round"/>
</svg>
