<svg width="60" height="60" viewBox="0 0 60 60" fill="none" xmlns="http://www.w3.org/2000/svg">
<path d="M9.03906 43.9649L16.0359 50.9608" stroke="black" stroke-width="2" stroke-linecap="round" stroke-linejoin="round"/>
<path fill-rule="evenodd" clip-rule="evenodd" d="M51.8153 2L41.9208 11.8945L43.1577 13.1315L33.2632 23.026C26.2575 18.1508 18.0256 21.6625 17.185 29.2097C1.94154 25.9373 -2.70311 42.714 7.2895 52.7085C17.3351 62.7551 34.044 57.977 30.7893 42.814C38.3051 41.9763 41.8767 33.7817 36.974 26.7358L46.8676 16.8413L48.1055 18.0792L58 8.18469L51.8153 2Z" stroke="black" stroke-width="2" stroke-linecap="round" stroke-linejoin="round"/>
<path d="M46.8676 2L49.3405 4.47289" stroke="black" stroke-width="2" stroke-linecap="round" stroke-linejoin="round"/>
<path d="M43.1575 5.71003L45.6314 8.1839" stroke="black" stroke-width="2" stroke-linecap="round" stroke-linejoin="round"/>
<path d="M57.9996 13.1312L55.5257 10.6583" stroke="black" stroke-width="2" stroke-linecap="round" stroke-linejoin="round"/>
<path d="M54.2896 16.8412L51.8157 14.3683" stroke="black" stroke-width="2" stroke-linecap="round" stroke-linejoin="round"/>
<circle cx="26.5" cy="33.5" r="4.5" stroke="black" stroke-width="2"/>
</svg>
