<svg width="30" height="30" viewBox="0 0 30 30" fill="none" xmlns="http://www.w3.org/2000/svg">
<path fill-rule="evenodd" clip-rule="evenodd" d="M25.2722 2.15663C25.3777 2.0509 25.4793 2 25.5847 2C25.6902 2 25.823 2.0509 25.9285 2.15663L27.8347 4.06747C28.0496 4.28283 28.0496 4.50994 27.8347 4.7253L27.0847 5.47711L27.3972 5.79036L26.991 6.22892L26.7722 5.79036L26.3347 6.22892L26.6472 6.54217L26.241 6.9494L25.9285 6.63614L25.1785 7.38795C24.9636 7.60331 24.7371 7.60331 24.5222 7.38795L15.4285 16.5349C15.4336 16.5619 15.4389 16.5887 15.4443 16.6155L15.4443 16.6157C15.4677 16.7328 15.491 16.8493 15.491 16.9735C15.491 18.3557 14.3699 19.4795 12.991 19.4795C11.6121 19.4795 10.491 18.3557 10.491 16.9735C10.491 15.5913 11.6121 14.4675 12.991 14.4675C13.1863 14.4675 13.3738 14.487 13.5535 14.5301L16.8972 11.1783C16.2293 10.6732 15.5261 10.3012 14.8972 10.1133C14.573 10.0154 14.2449 9.95663 13.9597 9.95663C13.3308 9.95663 12.7996 10.1798 12.3347 10.6458C12.0925 10.8886 11.9636 11.1783 11.8972 11.5542C11.5183 13.7235 9.6238 15.4151 7.39724 15.5639C6.44802 15.6265 5.6277 15.9946 5.02224 16.5976C3.29958 18.3244 3.78395 21.6214 6.08474 23.9277C8.38552 26.234 11.6394 26.6883 13.366 24.9614C13.9675 24.3545 14.3347 23.5322 14.3972 22.5807C14.5457 20.3488 16.2332 18.4458 18.3972 18.0699C18.7722 18.0033 19.0613 17.8702 19.3035 17.6313C19.9793 16.9539 20.1433 16.1042 19.8347 15.0627C19.7488 14.7768 19.616 14.487 19.4597 14.1855L20.9285 12.7133C21.2918 13.3124 21.6004 13.9114 21.7722 14.4988C22.2918 16.2608 21.9168 17.831 20.7097 19.041C20.1746 19.5774 19.491 19.9063 18.7097 20.0434C17.4441 20.2627 16.4871 21.3825 16.3972 22.706C16.2996 24.1509 15.7215 25.4196 14.7722 26.3711C13.6902 27.4557 12.241 28 10.6785 28C8.6277 28 6.39724 27.0916 4.64724 25.3374C1.5652 22.2518 1.11208 17.6979 3.61599 15.188C4.5652 14.2364 5.83083 13.6569 7.27224 13.559C8.59255 13.469 9.70974 12.4783 9.92849 11.2096C10.0652 10.4265 10.3933 9.77259 10.9285 9.23615C12.1394 8.02621 13.7019 7.6503 15.4597 8.17108C16.405 8.45301 17.4011 9.02078 18.3347 9.76868L22.5222 5.57108C22.3074 5.35572 22.3074 5.15994 22.5222 4.94458L23.241 4.19277L22.9285 3.87952L23.366 3.44096L23.6785 3.75422L24.116 3.34699L23.7722 3.00241L24.2097 2.59518L24.5222 2.90843L25.2722 2.15663ZM25.9285 3.66024L25.491 3.22169L23.5847 5.16386L23.991 5.57108L25.9285 3.66024ZM26.3347 3.97349L26.7722 4.41205L24.8347 6.32289L24.4285 5.88434L26.3347 3.97349ZM6.67848 20.0747L8.08473 18.6651L11.3035 21.8916L9.89723 23.3012L6.67848 20.0747Z" fill="black"/>
</svg>
